<svg width="46" height="46" viewBox="0 0 46 46" fill="none" xmlns="http://www.w3.org/2000/svg">
<rect width="46" height="46" rx="10" fill="#FEF2F3"/>
<path fill-rule="evenodd" clip-rule="evenodd" d="M11.5455 11C11.4741 11 11.4027 11.0138 11.3366 11.0415C11.2706 11.0692 11.2099 11.1097 11.1598 11.1598C11.1097 11.2099 11.0692 11.2706 11.0415 11.3366C11.0138 11.4027 11 11.4741 11 11.5455V34.4545C11 34.5259 11.0138 34.5973 11.0415 34.6634C11.0692 34.7294 11.1097 34.7901 11.1598 34.8402C11.2099 34.8903 11.2706 34.9308 11.3366 34.9585C11.4027 34.9861 11.4741 35 11.5455 35H34.4545C34.5259 35 34.5973 34.9861 34.6634 34.9585C34.7294 34.9308 34.7901 34.8903 34.8402 34.8402C34.8903 34.7901 34.9308 34.7294 34.9585 34.6634C34.9861 34.5973 35 34.5259 35 34.4545V11.5455C35 11.4741 34.9861 11.4027 34.9585 11.3366C34.9308 11.2706 34.8903 11.2099 34.8402 11.1598C34.7901 11.1097 34.7294 11.0692 34.6634 11.0415C34.5973 11.0138 34.5259 11 34.4545 11H11.5455ZM12.0909 12.0909H22.4545V33.9091H12.0909V12.0909ZM23.5455 12.0909H33.9091V33.9091H23.5455V12.0909Z" fill="#FF808B"/>
<path fill-rule="evenodd" clip-rule="evenodd" d="M16.9926 16.0605C16.9191 16.0605 16.8466 16.0754 16.7795 16.1031C16.7124 16.1318 16.6506 16.1734 16.5995 16.2266L13.5482 19.381C13.4971 19.4321 13.4566 19.4929 13.4299 19.56C13.4033 19.6271 13.3895 19.6985 13.3895 19.7709C13.3905 19.8434 13.4054 19.9147 13.4342 19.9808C13.463 20.0469 13.5045 20.1076 13.5557 20.1576C13.6079 20.2077 13.6696 20.2471 13.7368 20.2738C13.8039 20.3004 13.8763 20.3132 13.9477 20.3111C14.0201 20.3089 14.0915 20.2929 14.1576 20.2642C14.2236 20.2343 14.2833 20.1928 14.3323 20.1395L16.447 17.9535V29.393C16.4459 29.4655 16.4587 29.5379 16.4853 29.605C16.512 29.6721 16.5525 29.7339 16.6025 29.7851C16.6526 29.8362 16.7144 29.8777 16.7804 29.9054C16.8476 29.9331 16.9189 29.9481 16.9914 29.9481C17.0638 29.9481 17.1363 29.9331 17.2023 29.9054C17.2694 29.8777 17.3302 29.8362 17.3802 29.7851C17.4314 29.7339 17.4708 29.6721 17.4974 29.605C17.524 29.5379 17.5368 29.4655 17.5358 29.393V17.9546L19.6473 20.1396C19.6963 20.1918 19.7559 20.2354 19.822 20.2642C19.888 20.294 19.9594 20.31 20.0319 20.3121C20.1043 20.3143 20.1767 20.3015 20.2439 20.2749C20.311 20.2482 20.3728 20.2088 20.425 20.1587C20.4772 20.1087 20.5187 20.0479 20.5475 19.9819C20.5763 19.9158 20.5912 19.8434 20.5922 19.771C20.5933 19.6985 20.5794 19.6261 20.5517 19.56C20.524 19.4929 20.4836 19.4322 20.4324 19.381L17.3833 16.2278C17.3333 16.1756 17.2715 16.1329 17.2044 16.1052C17.1372 16.0765 17.0648 16.0616 16.9924 16.0616L16.9926 16.0605Z" fill="#FF808B"/>
<path fill-rule="evenodd" clip-rule="evenodd" d="M29.0033 16.0528C28.9319 16.0539 28.8605 16.0688 28.7956 16.0976C28.7306 16.1263 28.6698 16.1668 28.6208 16.218C28.5708 16.2691 28.5313 16.3298 28.5047 16.3969C28.4781 16.463 28.4653 16.5344 28.4664 16.6057V28.0453L26.3517 25.8592C26.3027 25.807 26.243 25.7633 26.1769 25.7346C26.1109 25.7047 26.0395 25.6888 25.9671 25.6866C25.8946 25.6834 25.8222 25.6973 25.7551 25.7239C25.688 25.7506 25.6262 25.79 25.574 25.84C25.5218 25.8901 25.4802 25.9508 25.4515 26.0169C25.4227 26.0829 25.4078 26.1554 25.4078 26.2278C25.4067 26.3003 25.4206 26.3727 25.4483 26.4388C25.476 26.5059 25.5164 26.5666 25.5676 26.6177L28.6188 29.7721C28.67 29.8243 28.7307 29.8669 28.7978 29.8946C28.8649 29.9234 28.9374 29.9383 29.0109 29.9383C29.0833 29.9383 29.1568 29.9234 29.224 29.8946C29.2911 29.8659 29.3529 29.8243 29.4029 29.7721L32.452 26.6177C32.5032 26.5666 32.5436 26.5059 32.5703 26.4388C32.598 26.3716 32.6118 26.3003 32.6108 26.2278C32.6097 26.1554 32.5948 26.084 32.566 26.018C32.5373 25.9519 32.4957 25.8912 32.4435 25.8411C32.3913 25.791 32.3295 25.7516 32.2624 25.725C32.1953 25.6983 32.1228 25.6866 32.0504 25.6877C31.978 25.6909 31.9066 25.7058 31.8405 25.7356C31.7745 25.7655 31.7148 25.8081 31.6658 25.8603L29.5543 28.0453V16.6068C29.5554 16.5344 29.5415 16.4609 29.5138 16.3938C29.4861 16.3266 29.4456 16.2649 29.3945 16.2127C29.3434 16.1615 29.2816 16.12 29.2134 16.0933C29.1463 16.0656 29.0728 16.0529 29.0003 16.0539L29.0033 16.0528Z" fill="#FF808B"/>
</svg>
