<svg width="42" height="42" viewBox="0 0 42 42" fill="none" xmlns="http://www.w3.org/2000/svg">
<rect x="0.5" y="0.5" width="41" height="41" rx="9.5" fill="#0085FF" stroke="#E8E8EE"/>
<path d="M26.3345 20.9129C26.5988 20.9466 26.8013 21.121 27.0066 21.3404C28.4157 22.8394 29.2295 24.8552 29.2435 26.9316C29.2529 28.3304 27.811 29.3494 26.3297 29.8952C23.9362 30.7755 21.2916 30.9095 18.7265 30.5974C17.038 30.392 15.3149 30.0377 13.9171 28.9792C13.2815 28.4974 12.7527 27.7905 12.7584 26.9336C12.7715 24.8177 13.6106 22.7768 15.0646 21.2674C15.434 20.8831 16.1296 20.8353 16.38 21.3687C16.5318 21.6931 16.394 22.0456 16.1146 22.3381C14.9671 23.5512 14.2893 25.2022 14.2584 26.8597C14.2462 27.4822 14.8912 27.8938 15.4959 28.1938C17.0549 28.9681 18.8539 29.195 20.6314 29.2306C22.5692 29.27 24.5539 29.0778 26.2995 28.2912C26.7954 28.0681 27.3054 27.8075 27.6138 27.3509C27.7835 27.1015 27.7479 26.7453 27.7207 26.42C27.5904 24.8403 26.8751 23.3187 25.7426 22.1919C25.7426 22.1919 25.5692 21.9894 25.5345 21.7925C25.4548 21.3491 25.8513 20.8944 26.3351 20.9141L26.3345 20.9129ZM21.0338 11.25C22.9519 11.2678 24.8193 12.42 25.6857 14.1355C26.4067 15.5633 26.4226 17.3268 25.7279 18.7687C24.5935 21.1228 21.5541 22.4071 18.9892 21.3394C17.3148 20.6428 16.0586 19.0247 15.8063 17.2274C15.5757 15.583 16.1804 13.8449 17.3832 12.6994C18.3376 11.79 19.6285 11.2631 20.9674 11.25H21.0349L21.0338 11.25ZM20.9757 12.7481C19.2648 12.765 17.6728 14.0644 17.3289 15.7397C17.0786 16.9613 17.4883 18.301 18.3826 19.1746C19.4167 20.1852 21.0582 20.519 22.4149 19.964C23.9983 19.3162 25.0042 17.4795 24.6789 15.7846C24.3602 14.1234 22.8058 12.7865 21.0725 12.7481C21.0406 12.7472 21.0078 12.7472 20.9759 12.7472L20.9757 12.7481Z" fill="white"/>
</svg>
