<svg width="13" height="11" viewBox="0 0 13 11" fill="none" xmlns="http://www.w3.org/2000/svg">
<path d="M12.9146 10.0534L7.07458 0.313082C6.81425 -0.104361 6.19252 -0.104361 5.93277 0.313082L0.0927347 10.0534C-0.167593 10.4709 0.150334 10.9997 0.670985 10.9997H12.3658C12.8424 11.0139 13.1609 10.485 12.9147 10.0534H12.9146ZM6.49633 9.26038C6.13492 9.26038 5.86049 8.98208 5.86049 8.64835C5.86049 8.30048 6.14961 8.03633 6.49633 8.03633C6.85774 8.03633 7.13217 8.31462 7.13217 8.64835C7.13217 8.98208 6.85774 9.26038 6.49633 9.26038ZM7.37839 4.05654L7.03167 6.85368C7.03167 7.13198 6.78603 7.36842 6.49691 7.36842C6.20778 7.36842 5.96214 7.13198 5.96214 6.85368L5.61543 4.05654L5.60074 3.94511C5.60074 3.59724 6.00563 3.31895 6.49691 3.31895C6.9882 3.31895 7.39309 3.59724 7.39309 3.94511L7.37839 4.05654Z" fill="#FC5D2D"/>
</svg>
