<svg width="46" height="46" viewBox="0 0 46 46" fill="none" xmlns="http://www.w3.org/2000/svg">
<rect width="46" height="46" rx="10" fill="#EEF8FD"/>
<path d="M29.6319 22.6614C31.1023 22.6614 32.3277 21.461 32.3277 19.9657C32.3277 18.4704 31.1272 17.27 29.6319 17.27H26.5926C25.9062 17.27 25.2697 17.515 24.7546 17.9803L22.0839 20.5057C22.0102 19.7954 21.6187 19.1827 21.0548 18.7902C21.5449 18.3738 21.8877 17.7611 21.8877 17.0747C21.8877 15.8494 20.8825 14.8442 19.6572 14.8442C18.4318 14.8442 17.4267 15.8494 17.4267 17.0747C17.4267 17.7611 17.7454 18.3738 18.2595 18.7902C17.6219 19.2315 17.2055 19.9667 17.2055 20.7995V25.0632L15.5408 26.6073H13.5553C12.085 26.6073 10.8596 27.8077 10.8596 29.303C10.8596 30.7983 12.0601 31.9988 13.5553 31.9988H16.6187C17.3051 31.9988 17.9416 31.7537 18.4567 31.2885L27.6467 22.6614H29.6319ZM18.3829 17.0746C18.3829 16.3643 18.9468 15.8005 19.6571 15.8005C20.3674 15.8005 20.9312 16.3643 20.9312 17.0746C20.9312 17.7849 20.3674 18.3488 19.6571 18.3488C18.9716 18.3488 18.3829 17.7601 18.3829 17.0746ZM18.1627 20.7994C18.1627 19.9666 18.8491 19.3041 19.658 19.3041C20.4909 19.3041 21.1533 19.9905 21.1533 20.7994V21.3632L18.1628 24.1815L18.1627 20.7994ZM27.1317 21.8534L17.7951 30.5772C17.4763 30.8711 17.0599 31.0425 16.6186 31.0425L13.5553 31.0434C12.5999 31.0434 11.8149 30.2594 11.8149 29.3031C11.8149 28.3477 12.5989 27.5627 13.5553 27.5627H15.736C15.8585 27.5627 15.9811 27.5139 16.0548 27.4402L25.4161 18.7153C25.7348 18.4214 26.1513 18.2501 26.5926 18.2501H29.6309C30.5863 18.2501 31.3713 19.0341 31.3713 19.9905C31.3713 20.9458 30.5872 21.7308 29.6309 21.7308H27.4502C27.3526 21.7308 27.23 21.7796 27.1314 21.8534L27.1317 21.8534Z" fill="#0066FF"/>
<path d="M29.387 29.6958L28.7006 30.3822V24.8432C28.7006 24.5732 28.4804 24.378 28.2353 24.378C27.9654 24.378 27.7701 24.5981 27.7701 24.8432V30.3822L27.0837 29.6958C26.8875 29.4996 26.5936 29.4996 26.4222 29.6958C26.226 29.8921 26.226 30.1859 26.4222 30.3573L27.9175 31.8526C28.0152 31.9502 28.1377 32 28.2602 32C28.3828 32 28.5053 31.9512 28.6029 31.8526L30.0982 30.3573C30.2945 30.161 30.2945 29.8672 30.0982 29.6958C29.8771 29.4996 29.5822 29.4996 29.387 29.6958H29.387Z" fill="#0066FF"/>
<path d="M33.9933 25.9948L32.498 24.4995C32.3017 24.3033 32.0078 24.3033 31.8365 24.4995L30.3421 25.9948C30.1459 26.191 30.1459 26.4849 30.3421 26.6563C30.5384 26.8276 30.8323 26.8525 31.0036 26.6563L31.69 25.9699V31.5089C31.69 31.7788 31.9102 31.9741 32.1552 31.9741C32.4252 31.9741 32.6205 31.7539 32.6205 31.5089L32.6214 25.9949L33.3078 26.6813C33.4054 26.7789 33.528 26.8287 33.6505 26.8287C33.773 26.8287 33.8956 26.7799 33.9932 26.6813C34.1894 26.485 34.1894 26.1911 33.9932 25.9949L33.9933 25.9948Z" fill="#0066FF"/>
</svg>
