<svg width="46" height="46" viewBox="0 0 46 46" fill="none" xmlns="http://www.w3.org/2000/svg">
<rect width="46" height="46" rx="10" fill="white" fill-opacity="0.2"/>
<path d="M21.6931 24.238C21.5508 24.238 21.4059 24.2064 21.2688 24.1431C20.7628 23.9086 20.5415 23.3077 20.776 22.799C22.0884 19.9633 23.2243 17.5124 26.3947 17.5124H32.4668C33.0255 17.5124 33.4788 17.9657 33.4788 18.5244C33.4788 19.0831 33.0255 19.5364 32.4668 19.5364H26.3947C24.6712 19.5364 24.0255 20.6011 22.6129 23.6503C22.4389 24.0219 22.0726 24.238 21.6931 24.238L21.6931 24.238Z" fill="white"/>
<path d="M17.5847 28.939H13.0123C12.4536 28.939 12.0003 28.4858 12.0003 27.927C12.0003 27.3683 12.4536 26.915 13.0123 26.915H17.5847C18.009 26.915 18.3727 26.8044 18.6916 26.5751C19.1132 26.2746 20.1305 24.356 20.7578 22.8406C20.9712 22.3241 21.5642 22.079 22.0807 22.2925C22.5973 22.5059 22.8424 23.0989 22.6289 23.6154C22.3706 24.24 21.0187 27.3999 19.8696 28.2221C19.2029 28.6965 18.4359 28.939 17.5847 28.939V28.939Z" fill="white"/>
<path d="M32.9885 19.5389C32.7118 19.5389 32.4377 19.4256 32.2374 19.2042L29.9709 16.6874C29.5967 16.271 29.6309 15.6332 30.0447 15.2589C30.4611 14.8873 31.0989 14.919 31.4731 15.3327L33.7396 17.8496C34.1138 18.266 34.0796 18.9038 33.6658 19.278C33.4708 19.4546 33.2283 19.5389 32.9885 19.5389Z" fill="white"/>
<path d="M30.7223 22.0554C30.4798 22.0554 30.2373 21.9684 30.045 21.7945C29.6312 21.4203 29.5969 20.7799 29.9712 20.3661L32.2377 17.8492C32.6119 17.4328 33.2523 17.4012 33.6661 17.7754C34.0798 18.1497 34.1141 18.7901 33.7399 19.2038L31.4734 21.7207C31.2731 21.9421 30.999 22.0554 30.7223 22.0554V22.0554Z" fill="white"/>
<path d="M32.4645 29.0369H25.7995C24.35 29.0369 23.2299 28.5309 22.3787 27.4872C22.0255 27.055 22.0888 26.4173 22.521 26.0641C22.9532 25.7109 23.591 25.7742 23.9441 26.2064C24.4133 26.7783 24.9509 27.0128 25.8021 27.0128H32.4671C33.0258 27.0128 33.4791 27.4661 33.4791 28.0248C33.4765 28.5835 33.0232 29.0368 32.4645 29.0368L32.4645 29.0369Z" fill="white"/>
<path d="M20.1646 20.9908C19.872 20.9908 19.5821 20.8643 19.3818 20.6218C19.1657 20.3583 18.9391 20.1475 18.7124 19.992C18.3619 19.7548 17.9956 19.6388 17.5844 19.6388H13.012C12.4533 19.6388 12 19.1855 12 18.6268C12 18.0681 12.4533 17.6148 13.012 17.6148H17.5844C18.4014 17.6148 19.163 17.852 19.8483 18.3185C20.2357 18.582 20.6047 18.9246 20.942 19.3358C21.2978 19.768 21.2345 20.4057 20.805 20.7589C20.6179 20.9144 20.3912 20.9908 20.1646 20.9908L20.1646 20.9908Z" fill="white"/>
<path d="M30.7223 31.5534C30.4798 31.5534 30.2373 31.4665 30.045 31.2925C29.6312 30.9183 29.5969 30.2779 29.9712 29.8641L32.2377 27.3473C32.6119 26.9309 33.2523 26.8993 33.6661 27.2735C34.0798 27.6477 34.1141 28.2881 33.7399 28.7019L31.4734 31.2187C31.2731 31.4401 30.999 31.5534 30.7223 31.5534V31.5534Z" fill="white"/>
<path d="M32.9885 29.0369C32.7118 29.0369 32.4377 28.9236 32.2374 28.7022L29.9709 26.1853C29.5967 25.7689 29.6309 25.1312 30.0447 24.7569C30.4611 24.3853 31.0989 24.417 31.4731 24.8307L33.7396 27.3476C34.1138 27.764 34.0796 28.4017 33.6658 28.776C33.4708 28.9526 33.2283 29.0369 32.9885 29.0369V29.0369Z" fill="white"/>
</svg>
