<svg width="159" height="31" viewBox="0 0 159 31" fill="none" xmlns="http://www.w3.org/2000/svg">
<path d="M57.9545 14.5795C57.6705 13.1023 56.4886 12.1591 54.4432 12.1591C52.3409 12.1591 50.9091 13.1932 50.9148 14.8068C50.9091 16.0795 51.6932 16.9205 53.3693 17.267L54.858 17.5795C55.6591 17.7557 56.0341 18.0795 56.0341 18.5739C56.0341 19.1705 55.3864 19.6193 54.4091 19.6193C53.4659 19.6193 52.8523 19.2102 52.6761 18.4261L50.6705 18.6193C50.9261 20.2216 52.2727 21.1705 54.4148 21.1705C56.5966 21.1705 58.1364 20.0398 58.142 18.3864C58.1364 17.142 57.3352 16.3807 55.6875 16.0227L54.1989 15.7045C53.3125 15.5057 52.9602 15.1989 52.9659 14.6932C52.9602 14.1023 53.6136 13.6932 54.4716 13.6932C55.4205 13.6932 55.9205 14.2102 56.0795 14.7841L57.9545 14.5795ZM59.8381 21H61.8949V15.6932C61.8949 14.6193 62.6108 13.892 63.4972 13.892C64.3665 13.892 64.9631 14.4773 64.9631 15.375V21H66.9801V15.5568C66.9801 14.5739 67.5653 13.892 68.5597 13.892C69.3892 13.892 70.0483 14.3807 70.0483 15.4602V21H72.1108V15.142C72.1108 13.1932 70.9858 12.1591 69.3835 12.1591C68.1165 12.1591 67.1506 12.7841 66.7642 13.7557H66.6733C66.3381 12.767 65.4915 12.1591 64.3153 12.1591C63.1449 12.1591 62.2699 12.7614 61.9062 13.7557H61.804V12.2727H59.8381V21ZM76.7088 21.1761C78.0781 21.1761 78.8963 20.5341 79.2713 19.8011H79.3395V21H81.3168V15.1591C81.3168 12.8523 79.4361 12.1591 77.7713 12.1591C75.9361 12.1591 74.527 12.9773 74.0724 14.5682L75.9929 14.8409C76.1974 14.2443 76.777 13.733 77.7827 13.733C78.7372 13.733 79.2599 14.2216 79.2599 15.0795V15.1136C79.2599 15.7045 78.6406 15.733 77.1009 15.8977C75.4077 16.0795 73.7884 16.5852 73.7884 18.5511C73.7884 20.267 75.044 21.1761 76.7088 21.1761ZM77.2429 19.6648C76.3849 19.6648 75.7713 19.2727 75.7713 18.517C75.7713 17.7273 76.4588 17.3977 77.3793 17.267C77.919 17.1932 78.9986 17.0568 79.2656 16.8409V17.8693C79.2656 18.8409 78.4815 19.6648 77.2429 19.6648ZM83.3849 21H85.4418V15.8693C85.4418 14.7614 86.277 13.9773 87.4077 13.9773C87.7543 13.9773 88.1861 14.0398 88.3622 14.0966V12.2045C88.1747 12.1705 87.8509 12.1477 87.6236 12.1477C86.6236 12.1477 85.7884 12.7159 85.4702 13.7273H85.3793V12.2727H83.3849V21ZM94.5554 12.2727H92.8338V10.1818H90.777V12.2727H89.5384V13.8636H90.777V18.7159C90.7656 20.358 91.9588 21.1648 93.5043 21.1193C94.0895 21.1023 94.4929 20.9886 94.7145 20.9148L94.3679 19.3068C94.2543 19.3352 94.0213 19.3864 93.7656 19.3864C93.2486 19.3864 92.8338 19.2045 92.8338 18.375V13.8636H94.5554V12.2727Z" fill="#585E6C"/>
<path d="M102.543 12.7102C102.497 12.2519 102.3 11.8958 101.952 11.642C101.607 11.3883 101.141 11.2614 100.554 11.2614C99.9517 11.2614 99.4896 11.3845 99.1676 11.6307C98.8456 11.8769 98.6847 12.1875 98.6847 12.5625C98.6771 12.9792 98.8551 13.2955 99.2188 13.5114C99.5862 13.7235 100.022 13.8883 100.526 14.0057L101.571 14.2557C102.245 14.4072 102.844 14.6269 103.366 14.9148C103.893 15.2027 104.306 15.5739 104.605 16.0284C104.908 16.4792 105.06 17.0284 105.06 17.6761C105.056 18.7405 104.656 19.589 103.861 20.2216C103.069 20.8504 101.963 21.1648 100.543 21.1648C99.1297 21.1648 98.0028 20.8428 97.1619 20.1989C96.321 19.5549 95.8854 18.6042 95.8551 17.3466H98.2358C98.2775 17.9299 98.5066 18.3693 98.9233 18.6648C99.3438 18.9564 99.8741 19.1023 100.514 19.1023C101.139 19.1023 101.637 18.9697 102.009 18.7045C102.384 18.4394 102.573 18.0947 102.577 17.6705C102.573 17.2765 102.401 16.9735 102.06 16.7614C101.719 16.5492 101.232 16.3674 100.599 16.2159L99.3324 15.8977C98.3513 15.6629 97.5767 15.2898 97.0085 14.7784C96.4403 14.267 96.1581 13.5833 96.1619 12.7273C96.1581 12.0227 96.3456 11.4072 96.7244 10.8807C97.107 10.3504 97.6316 9.93939 98.2983 9.64773C98.965 9.35227 99.7225 9.20455 100.571 9.20455C101.435 9.20455 102.188 9.35227 102.832 9.64773C103.48 9.94318 103.984 10.3542 104.344 10.8807C104.704 11.4072 104.889 12.017 104.901 12.7102H102.543ZM106.714 21V9.36364H111.305C112.188 9.36364 112.94 9.5322 113.561 9.86932C114.182 10.2027 114.656 10.6667 114.982 11.2614C115.311 11.8523 115.476 12.5341 115.476 13.3068C115.476 14.0795 115.309 14.7614 114.976 15.3523C114.643 15.9394 114.16 16.3996 113.527 16.733C112.898 17.0625 112.137 17.2273 111.243 17.2273H109.175V21H106.714ZM109.175 15.2557H110.845C111.55 15.2557 112.074 15.0758 112.419 14.7159C112.768 14.3523 112.942 13.8826 112.942 13.3068C112.942 12.7273 112.768 12.2614 112.419 11.9091C112.074 11.553 111.546 11.375 110.834 11.375H109.175V15.2557ZM117.736 21H115.099L119.116 9.36364H122.287L126.298 21H123.662L122.798 18.3466H118.599L117.736 21ZM119.224 16.4261H122.179L120.747 12.0227H120.656L119.224 16.4261ZM137.419 13.4375H134.93C134.836 12.7973 134.563 12.2955 134.112 11.9318C133.661 11.5644 133.099 11.3807 132.425 11.3807C131.523 11.3807 130.8 11.7121 130.254 12.375C129.713 13.0341 129.442 13.9697 129.442 15.1818C129.442 16.4242 129.714 17.3693 130.26 18.017C130.809 18.661 131.525 18.983 132.408 18.983C133.063 18.983 133.618 18.8125 134.072 18.4716C134.527 18.1269 134.813 17.6439 134.93 17.0227L137.419 17.0341C137.332 17.7462 137.078 18.4167 136.658 19.0455C136.237 19.6742 135.665 20.1837 134.942 20.5739C134.222 20.964 133.364 21.1591 132.368 21.1591C131.33 21.1591 130.402 20.9242 129.584 20.4545C128.769 19.9848 128.125 19.3049 127.652 18.4148C127.182 17.5246 126.947 16.447 126.947 15.1818C126.947 13.9129 127.186 12.8333 127.663 11.9432C128.141 11.053 128.788 10.375 129.607 9.90909C130.425 9.43939 131.345 9.20455 132.368 9.20455C133.266 9.20455 134.074 9.37121 134.794 9.70455C135.518 10.0341 136.108 10.5152 136.567 11.1477C137.029 11.7765 137.313 12.5398 137.419 13.4375ZM139.183 21V9.36364H147.024V11.392H141.643V14.1648H146.621V16.1932H141.643V18.9716H147.047V21H139.183ZM155.293 12.7102C155.247 12.2519 155.05 11.8958 154.702 11.642C154.357 11.3883 153.891 11.2614 153.304 11.2614C152.702 11.2614 152.24 11.3845 151.918 11.6307C151.596 11.8769 151.435 12.1875 151.435 12.5625C151.427 12.9792 151.605 13.2955 151.969 13.5114C152.336 13.7235 152.772 13.8883 153.276 14.0057L154.321 14.2557C154.995 14.4072 155.594 14.6269 156.116 14.9148C156.643 15.2027 157.056 15.5739 157.355 16.0284C157.658 16.4792 157.81 17.0284 157.81 17.6761C157.806 18.7405 157.406 19.589 156.611 20.2216C155.819 20.8504 154.713 21.1648 153.293 21.1648C151.88 21.1648 150.753 20.8428 149.912 20.1989C149.071 19.5549 148.635 18.6042 148.605 17.3466H150.986C151.027 17.9299 151.257 18.3693 151.673 18.6648C152.094 18.9564 152.624 19.1023 153.264 19.1023C153.889 19.1023 154.387 18.9697 154.759 18.7045C155.134 18.4394 155.323 18.0947 155.327 17.6705C155.323 17.2765 155.151 16.9735 154.81 16.7614C154.469 16.5492 153.982 16.3674 153.349 16.2159L152.082 15.8977C151.101 15.6629 150.327 15.2898 149.759 14.7784C149.19 14.267 148.908 13.5833 148.912 12.7273C148.908 12.0227 149.096 11.4072 149.474 10.8807C149.857 10.3504 150.382 9.93939 151.048 9.64773C151.715 9.35227 152.473 9.20455 153.321 9.20455C154.185 9.20455 154.938 9.35227 155.582 9.64773C156.23 9.94318 156.734 10.3542 157.094 10.8807C157.454 11.4072 157.639 12.017 157.651 12.7102H155.293Z" fill="#0066FF"/>
<path d="M6.72241 13.5948L5.84525 14.2526C5.80071 14.2972 5.75787 14.34 5.75787 14.4274C5.75787 14.4719 5.75787 14.5147 5.80242 14.5593C5.84696 14.6038 5.88979 14.6467 5.97716 14.6467C6.02171 14.6467 6.06454 14.6467 6.10908 14.6021L6.98624 13.9888C7.03079 13.9443 7.07362 13.9014 7.07362 13.8141C7.07362 13.7695 7.07362 13.7267 7.02908 13.6821C6.9417 13.5519 6.80978 13.5074 6.72241 13.5948V13.5948Z" fill="url(#paint0_linear)"/>
<path d="M10.3183 11.0527L9.44114 11.7106C9.39659 11.7552 9.35376 11.8425 9.35376 11.8854C9.35376 11.9299 9.35376 11.9727 9.3983 12.0173C9.44285 12.0618 9.53022 12.1047 9.57305 12.1047C9.61759 12.1047 9.66043 12.1047 9.70497 12.0601L10.5821 11.4468C10.6267 11.4023 10.6695 11.3594 10.6695 11.272C10.6695 11.2275 10.6695 11.1847 10.625 11.1401C10.5376 11.0082 10.4057 10.9637 10.3183 11.0528V11.0527Z" fill="url(#paint1_linear)"/>
<path d="M8.52142 12.3237L7.64426 12.937C7.59972 12.9816 7.55688 13.069 7.55688 13.1118C7.55688 13.1563 7.55688 13.1992 7.60143 13.2437C7.64597 13.2883 7.73334 13.3311 7.77618 13.3311C7.82072 13.3311 7.86355 13.3311 7.90809 13.2865L8.78525 12.6287C8.8298 12.5841 8.87263 12.4968 8.87263 12.4539C8.87263 12.4094 8.87263 12.3666 8.82809 12.322C8.74071 12.2792 8.60879 12.2364 8.52142 12.3237V12.3237Z" fill="url(#paint2_linear)"/>
<path d="M12.0726 9.77953L11.1955 10.3928C11.1509 10.4374 11.1081 10.4802 11.1081 10.5676C11.1081 10.6121 11.1081 10.655 11.1526 10.6995C11.1972 10.7441 11.24 10.7869 11.3274 10.7869C11.3719 10.7869 11.4148 10.7869 11.4593 10.7423L12.3365 10.0845C12.381 10.0399 12.4238 9.9971 12.4238 9.90972C12.4238 9.86518 12.4238 9.82235 12.3793 9.77781C12.3365 9.73669 12.2045 9.69215 12.0726 9.77952V9.77953Z" fill="url(#paint3_linear)"/>
<path d="M20.3631 9.29844C20.2757 9.2539 20.1438 9.2539 20.0564 9.34298C20.0119 9.38752 20.0119 9.43035 20.0119 9.4749C20.0119 9.56227 20.0564 9.60681 20.0993 9.64964L20.9764 10.263C21.021 10.3075 21.0638 10.3075 21.1084 10.3075C21.1957 10.3075 21.2403 10.263 21.2831 10.2201C21.3276 10.1756 21.3276 10.1328 21.3276 10.0882C21.3276 10.0008 21.2831 9.95629 21.2403 9.91346L20.3631 9.29844Z" fill="url(#paint4_linear)"/>
<path d="M3.12652 16.139L2.24936 16.7968C2.20482 16.8414 2.16199 16.9288 2.16199 16.9716C2.16199 17.0161 2.16199 17.059 2.20653 17.1035C2.25107 17.148 2.33845 17.1909 2.38128 17.1909C2.42582 17.1909 2.46865 17.1909 2.51319 17.1463L3.39036 16.533C3.4349 16.4885 3.47773 16.4011 3.47773 16.3583C3.47773 16.3137 3.47773 16.2709 3.43319 16.2264C3.38865 16.0962 3.25844 16.0516 3.12652 16.139V16.139Z" fill="url(#paint5_linear)"/>
<path d="M22.16 10.5694C22.0726 10.4821 21.9407 10.5249 21.8533 10.614C21.8088 10.6585 21.8088 10.7014 21.8088 10.7459C21.8088 10.8333 21.8533 10.8778 21.8962 10.9206L22.7733 11.5785C22.8179 11.6231 22.8607 11.6231 22.9052 11.6231C22.9926 11.6231 23.0371 11.5785 23.08 11.5357C23.1691 11.4466 23.1691 11.4021 23.1691 11.3592C23.1691 11.2719 23.1245 11.2273 23.0817 11.1845L22.16 10.5694Z" fill="url(#paint6_linear)"/>
<path d="M25.7559 13.1136C25.6685 13.0263 25.5366 13.0691 25.4492 13.1582C25.4047 13.2027 25.4047 13.2456 25.4047 13.2901C25.4047 13.3775 25.4492 13.422 25.4921 13.4649L26.3692 14.1227C26.4138 14.1673 26.4566 14.1673 26.5011 14.1673C26.5885 14.1673 26.6331 14.1227 26.6759 14.0799C26.7204 14.0354 26.7204 13.9925 26.7204 13.948C26.7204 13.8606 26.6759 13.8161 26.6331 13.7732L25.7559 13.1136Z" fill="url(#paint7_linear)"/>
<path d="M15.6686 7.23535L14.7914 7.84867C14.7469 7.89321 14.704 7.93604 14.704 8.02341C14.704 8.06796 14.704 8.11079 14.7486 8.15533C14.7931 8.19987 14.8805 8.2427 14.9233 8.2427C14.9679 8.2427 15.0107 8.24271 15.0552 8.19816L15.9324 7.54029C15.977 7.49575 16.0198 7.45292 16.0198 7.36554C16.0198 7.321 16.0198 7.27817 15.9752 7.23363C15.8879 7.19251 15.7577 7.19251 15.6686 7.23534V7.23535Z" fill="url(#paint8_linear)"/>
<path d="M29.9672 16.6223C30.0117 16.6668 30.0546 16.6668 30.0991 16.6668C30.1865 16.6668 30.231 16.6223 30.2739 16.5795C30.3184 16.5349 30.3184 16.4921 30.3184 16.4475C30.3184 16.3602 30.2739 16.3156 30.231 16.2728L29.3539 15.6595C29.2665 15.5721 29.1346 15.6149 29.0472 15.704C29.0027 15.7486 29.0027 15.7914 29.0027 15.8359C29.0027 15.9233 29.0472 15.9679 29.09 16.0107L29.9672 16.6223Z" fill="url(#paint9_linear)"/>
<path d="M31.7663 17.8933C31.8109 17.9378 31.8537 17.9378 31.8982 17.9378C31.9856 17.9378 32.0302 17.8933 32.073 17.8505C32.1175 17.8059 32.1175 17.7631 32.1175 17.7185C32.1175 17.674 32.073 17.5866 32.0302 17.5438L31.153 16.8859C31.0656 16.8414 30.9337 16.8414 30.8463 16.9305C30.8018 16.975 30.8018 17.0178 30.8018 17.0624C30.8018 17.1498 30.8463 17.1943 30.8892 17.2371L31.7663 17.8933Z" fill="url(#paint10_linear)"/>
<path d="M23.959 11.7979C23.8717 11.7533 23.7397 11.7533 23.6524 11.8424C23.6078 11.8853 23.6078 11.9298 23.6078 12.0172C23.6078 12.1045 23.6524 12.1491 23.6952 12.1919L24.5724 12.8052C24.6169 12.8498 24.6597 12.8498 24.7043 12.8498C24.7916 12.8498 24.8362 12.8052 24.879 12.7624C24.9236 12.7179 24.9236 12.675 24.9236 12.6305C24.9236 12.5431 24.879 12.4986 24.8362 12.4557L23.959 11.7979Z" fill="url(#paint11_linear)"/>
<path d="M13.8717 8.50854L12.9945 9.16641C12.95 9.21096 12.9072 9.25379 12.9072 9.34116C12.9072 9.3857 12.9072 9.42854 12.9517 9.47308C12.9962 9.51762 13.0836 9.56045 13.1265 9.56045C13.171 9.56045 13.2138 9.56045 13.2584 9.51591L14.1355 8.9026C14.1801 8.85806 14.2229 8.81522 14.2229 8.72785C14.2229 8.68331 14.2229 8.64048 14.1784 8.59593C14.091 8.46402 13.9591 8.42119 13.8717 8.50856V8.50854Z" fill="url(#paint12_linear)"/>
<path d="M18.6088 8.02522C18.5214 7.93785 18.3895 7.98068 18.3021 8.06977C18.2576 8.11431 18.2576 8.15714 18.2576 8.20168C18.2576 8.28906 18.3021 8.3336 18.3449 8.37643L19.2221 9.0343C19.2666 9.07884 19.3095 9.07884 19.354 9.07884C19.4414 9.07884 19.4859 9.0343 19.5288 8.99147C19.5733 8.94693 19.5733 8.9041 19.5733 8.85955C19.5733 8.77218 19.5288 8.72764 19.4859 8.68481L18.6088 8.02522Z" fill="url(#paint13_linear)"/>
<path d="M32.9925 12.3685C32.948 12.2811 32.948 12.2366 32.9051 12.2366H32.8606L32.8161 12.192L16.8539 0.833658C16.722 0.746284 16.5027 0.746284 16.328 0.833658L0.317986 12.192L0.273444 12.2366H0.228901C0.184359 12.2811 0.184359 12.324 0.141527 12.3685V12.413C0.141527 12.4576 0.0969849 12.5004 0.0969849 12.545V18.2465V18.291V18.3784C0.0969849 18.423 0.0969847 18.423 0.141527 18.4658C0.141527 18.5103 0.186069 18.5103 0.186069 18.5532C0.186069 18.5977 0.230612 18.5977 0.230612 18.6405L0.275154 18.6851L16.2834 30.0435C16.2834 30.0435 16.3279 30.0435 16.3279 30.088C16.3279 30.088 16.3725 30.088 16.3725 30.1325C16.417 30.1325 16.4598 30.1771 16.5044 30.1771C16.5489 30.1771 16.5917 30.1771 16.6363 30.1325C16.6363 30.1325 16.6808 30.1325 16.6808 30.088C16.6808 30.088 16.7254 30.088 16.7254 30.0435L32.7336 18.6851L32.7781 18.6405C32.8227 18.6405 32.8227 18.596 32.8227 18.5532C32.8227 18.5532 32.8672 18.5086 32.8672 18.4658C32.8672 18.4213 32.8672 18.4213 32.9118 18.3784V18.291V18.2465V12.545C33.0368 12.4987 32.9923 12.4113 32.9923 12.3685H32.9925ZM16.1519 28.7706L1.15284 18.1126L1.63598 17.7614C1.68053 17.7168 1.72336 17.674 1.72336 17.5866C1.72336 17.5421 1.72336 17.4993 1.67882 17.4547C1.59144 17.3673 1.45952 17.3228 1.37215 17.4102L1.06549 17.6295V13.3756L4.04819 15.5239C4.00365 15.5685 3.96081 15.6113 3.96081 15.6987C3.96081 15.7432 3.96081 15.786 4.00536 15.8306C4.0499 15.8751 4.13727 15.918 4.18011 15.918C4.22465 15.918 4.26748 15.918 4.31202 15.8734L4.3994 15.786L16.1538 24.1191L16.1519 28.7706ZM16.5905 23.3756L5.14262 15.2188L5.18716 15.1743C5.2317 15.1297 5.27453 15.0424 5.27453 14.9995C5.27453 14.955 5.27453 14.9122 5.22999 14.8676C5.14262 14.7803 5.0107 14.7357 4.92333 14.8231L4.79312 14.955L1.37183 12.4982L16.3709 1.84028V2.23432C16.3709 2.36624 16.4582 2.45361 16.5902 2.45361C16.7221 2.45361 16.8095 2.36624 16.8095 2.23432V1.84028L31.8085 12.4982L28.3872 14.955L27.51 14.3417C27.4227 14.2971 27.2908 14.2971 27.2034 14.3862C27.1588 14.4308 27.1588 14.4736 27.1588 14.5181C27.1588 14.6055 27.2034 14.6501 27.2462 14.6929L27.9915 15.2188L16.5905 23.3756ZM32.1601 18.0253L17.029 28.7706V24.1207L32.1601 13.3755V18.0253Z" fill="url(#paint14_linear)"/>
<path d="M16.8097 6.75421V6.66683V5.57038C16.8097 5.43846 16.7224 5.35109 16.5904 5.35109C16.4585 5.35109 16.3712 5.43846 16.3712 5.57038V6.66683C16.3712 6.75421 16.4157 6.79875 16.5031 6.84158V6.92896C16.5031 7.01633 16.5476 7.06087 16.5904 7.1037L17.4676 7.71702C17.5122 7.76156 17.555 7.76156 17.5995 7.76156C17.6869 7.76156 17.7314 7.71702 17.7743 7.67418C17.8188 7.62964 17.8188 7.58681 17.8188 7.54227C17.8188 7.45489 17.7743 7.41035 17.7314 7.36752L16.8097 6.75421Z" fill="url(#paint15_linear)"/>
<path d="M16.5904 4.69333C16.7224 4.69333 16.8097 4.60595 16.8097 4.47404V3.37759C16.8097 3.24567 16.7224 3.15829 16.5904 3.15829C16.4585 3.15829 16.3712 3.24567 16.3712 3.37759V4.47404C16.3712 4.56141 16.4585 4.69333 16.5904 4.69333Z" fill="url(#paint16_linear)"/>
<defs>
<linearGradient id="paint0_linear" x1="6.41575" y1="13.5495" x2="6.41575" y2="14.6467" gradientUnits="userSpaceOnUse">
<stop stop-color="#0085FF"/>
<stop offset="1" stop-color="#8307FE"/>
</linearGradient>
<linearGradient id="paint1_linear" x1="10.0116" y1="11.0063" x2="10.0116" y2="12.1047" gradientUnits="userSpaceOnUse">
<stop stop-color="#0085FF"/>
<stop offset="1" stop-color="#8307FE"/>
</linearGradient>
<linearGradient id="paint2_linear" x1="8.21476" y1="12.2729" x2="8.21476" y2="13.3311" gradientUnits="userSpaceOnUse">
<stop stop-color="#0085FF"/>
<stop offset="1" stop-color="#8307FE"/>
</linearGradient>
<linearGradient id="paint3_linear" x1="11.766" y1="9.72921" x2="11.766" y2="10.7869" gradientUnits="userSpaceOnUse">
<stop stop-color="#0085FF"/>
<stop offset="1" stop-color="#8307FE"/>
</linearGradient>
<linearGradient id="paint4_linear" x1="20.6698" y1="9.26918" x2="20.6698" y2="10.3075" gradientUnits="userSpaceOnUse">
<stop stop-color="#0085FF"/>
<stop offset="1" stop-color="#8307FE"/>
</linearGradient>
<linearGradient id="paint5_linear" x1="2.81986" y1="16.0937" x2="2.81986" y2="17.1909" gradientUnits="userSpaceOnUse">
<stop stop-color="#0085FF"/>
<stop offset="1" stop-color="#8307FE"/>
</linearGradient>
<linearGradient id="paint6_linear" x1="22.4889" y1="10.5216" x2="22.4889" y2="11.6231" gradientUnits="userSpaceOnUse">
<stop stop-color="#0085FF"/>
<stop offset="1" stop-color="#8307FE"/>
</linearGradient>
<linearGradient id="paint7_linear" x1="26.0626" y1="13.0658" x2="26.0626" y2="14.1673" gradientUnits="userSpaceOnUse">
<stop stop-color="#0085FF"/>
<stop offset="1" stop-color="#8307FE"/>
</linearGradient>
<linearGradient id="paint8_linear" x1="15.3619" y1="7.203" x2="15.3619" y2="8.2427" gradientUnits="userSpaceOnUse">
<stop stop-color="#0085FF"/>
<stop offset="1" stop-color="#8307FE"/>
</linearGradient>
<linearGradient id="paint9_linear" x1="29.6605" y1="15.6117" x2="29.6605" y2="16.6668" gradientUnits="userSpaceOnUse">
<stop stop-color="#0085FF"/>
<stop offset="1" stop-color="#8307FE"/>
</linearGradient>
<linearGradient id="paint10_linear" x1="31.4597" y1="16.8567" x2="31.4597" y2="17.9378" gradientUnits="userSpaceOnUse">
<stop stop-color="#0085FF"/>
<stop offset="1" stop-color="#8307FE"/>
</linearGradient>
<linearGradient id="paint11_linear" x1="24.2657" y1="11.7686" x2="24.2657" y2="12.8498" gradientUnits="userSpaceOnUse">
<stop stop-color="#0085FF"/>
<stop offset="1" stop-color="#8307FE"/>
</linearGradient>
<linearGradient id="paint12_linear" x1="13.565" y1="8.46289" x2="13.565" y2="9.56045" gradientUnits="userSpaceOnUse">
<stop stop-color="#0085FF"/>
<stop offset="1" stop-color="#8307FE"/>
</linearGradient>
<linearGradient id="paint13_linear" x1="18.9154" y1="7.97741" x2="18.9154" y2="9.07884" gradientUnits="userSpaceOnUse">
<stop stop-color="#0085FF"/>
<stop offset="1" stop-color="#8307FE"/>
</linearGradient>
<linearGradient id="paint14_linear" x1="16.5485" y1="0.768127" x2="16.5485" y2="30.1771" gradientUnits="userSpaceOnUse">
<stop stop-color="#0085FF"/>
<stop offset="1" stop-color="#8307FE"/>
</linearGradient>
<linearGradient id="paint15_linear" x1="17.095" y1="5.35109" x2="17.095" y2="7.76156" gradientUnits="userSpaceOnUse">
<stop stop-color="#0085FF"/>
<stop offset="1" stop-color="#8307FE"/>
</linearGradient>
<linearGradient id="paint16_linear" x1="16.5904" y1="3.15829" x2="16.5904" y2="4.69333" gradientUnits="userSpaceOnUse">
<stop stop-color="#0085FF"/>
<stop offset="1" stop-color="#8307FE"/>
</linearGradient>
</defs>
</svg>
