<svg width="20" height="20" viewBox="0 0 20 20" fill="none" xmlns="http://www.w3.org/2000/svg">
<path d="M8.91321 18.9062C8.84915 18.9062 8.78353 18.8976 8.71868 18.8789L6.46868 18.2328C6.1304 18.1351 5.91556 17.8007 5.96868 17.4531L6.23508 15.7281C5.91242 15.4742 5.63118 15.2515 5.37024 15.0109L3.70306 15.6765C3.37024 15.818 2.99056 15.6859 2.81634 15.3711L1.68274 13.3195C1.51243 13.0117 1.59837 12.6226 1.88196 12.4148L3.289 11.3875C3.23744 10.9718 3.19525 10.6156 3.18353 10.2679C3.18275 10.2476 3.17416 10.2218 3.15072 10.2125L1.53354 9.55778C1.19994 9.42262 1.02338 9.06012 1.1226 8.71482L1.77026 6.45862C1.86792 6.12034 2.20854 5.90472 2.55072 5.9594L4.27806 6.22658C4.53274 5.89612 4.75384 5.61408 4.9929 5.3594L4.33118 3.70002C4.19056 3.36956 4.32181 2.9883 4.63508 2.81408L6.68908 1.6758C6.99612 1.50392 7.38596 1.58986 7.59532 1.87501L8.62656 3.28751C9.02812 3.2383 9.37734 3.19689 9.725 3.18439C9.73516 3.18439 9.76797 3.18048 9.77969 3.1508L10.4297 1.53284C10.5633 1.19846 10.9289 1.0219 11.2719 1.11956L13.5235 1.76096C13.8617 1.85705 14.0774 2.1922 14.0242 2.53986L13.7617 4.27032C14.0875 4.52266 14.3696 4.74454 14.6281 4.98438L16.2961 4.31798C16.6281 4.17735 17.0086 4.30938 17.1828 4.62344L18.318 6.66944C18.4883 6.97726 18.4031 7.36632 18.1203 7.57412L16.7172 8.60772C16.7688 9.01632 16.811 9.37256 16.8227 9.72726L16.736 10.0796L16.8555 9.78272L18.4672 10.4304C18.8 10.564 18.9782 10.9265 18.8805 11.2726L18.2367 13.5288C18.1406 13.8678 17.8078 14.085 17.4563 14.0295L15.7336 13.7631C15.7039 13.7553 15.6883 13.7764 15.6766 13.7928C15.4797 14.0866 15.257 14.3678 15.0149 14.6272L15.6805 16.2952C15.8211 16.6256 15.6906 17.0069 15.3766 17.1819L13.3306 18.3163C13.0228 18.4842 12.6345 18.4014 12.4259 18.1186L11.3923 16.7092C10.9751 16.7608 10.6181 16.8038 10.2728 16.8147L9.56338 18.4647C9.45166 18.7381 9.19228 18.9061 8.91338 18.9061L8.91321 18.9062ZM5.32641 14.3516C5.49985 14.3516 5.67173 14.4173 5.80531 14.5415C6.04047 14.7587 6.29593 14.961 6.56391 15.1415C6.78891 15.293 6.90845 15.5618 6.86703 15.8259L6.60063 17.5493C6.59595 17.579 6.6147 17.6087 6.64517 17.6173L8.89517 18.2634C8.92485 18.2696 8.9561 18.2555 8.9686 18.2274L9.62328 16.6095C9.72563 16.3563 9.97172 16.1868 10.2506 16.1774C10.5608 16.1673 10.8827 16.129 11.2061 16.0641C11.4756 16.0095 11.7498 16.1165 11.9076 16.3329L12.9405 17.7415C12.9584 17.7665 12.9928 17.7751 13.0202 17.7587L15.0656 16.6243C15.0921 16.6102 15.1038 16.5759 15.0921 16.5477L14.4109 14.9415C14.3038 14.6915 14.357 14.3977 14.5453 14.1946C14.7648 13.9587 14.9671 13.7032 15.1453 13.4376C15.2984 13.2118 15.5624 13.0946 15.8296 13.1329L17.5523 13.3993C17.5851 13.4063 17.6117 13.3852 17.6195 13.3556L18.2632 11.0994C18.271 11.0697 18.2554 11.0369 18.2273 11.0259L16.6156 10.3783C16.3601 10.2751 16.1898 10.0283 16.182 9.74858C16.1718 9.43062 16.1335 9.1103 16.0695 8.79624C16.0148 8.52436 16.1171 8.25562 16.3367 8.09468L17.7398 7.06108C17.7648 7.04233 17.7726 7.00873 17.757 6.98139L16.6218 4.93599C16.6077 4.90943 16.5765 4.89693 16.5452 4.90943L14.939 5.59067C14.6882 5.69614 14.3945 5.64379 14.1921 5.45629C13.9585 5.23911 13.7038 5.03911 13.4359 4.86175C13.2078 4.71097 13.0874 4.44221 13.1281 4.17659L13.3906 2.44691C13.3953 2.41644 13.3765 2.38754 13.3476 2.37972L11.096 1.73832C11.0663 1.72973 11.0343 1.74536 11.0226 1.77426L10.3726 3.39302C10.2702 3.64692 10.0249 3.81724 9.74678 3.8274C9.43428 3.83834 9.11944 3.87584 8.81162 3.93756C8.54208 3.99225 8.26708 3.886 8.1085 3.66802L7.07726 2.25552C7.06007 2.23052 7.0257 2.22271 6.99913 2.23833L4.94513 3.37661C4.91857 3.39224 4.90685 3.42505 4.91857 3.45395L5.59513 5.05161C5.70216 5.30239 5.64826 5.59615 5.45919 5.79849C5.24513 6.02817 5.04591 6.28131 4.86623 6.55239C4.71545 6.78129 4.44435 6.90395 4.17873 6.86177L2.45139 6.59459C2.42171 6.58991 2.39202 6.60866 2.38343 6.63834L1.73577 8.89454C1.72717 8.92423 1.7428 8.95626 1.7717 8.96798L3.38888 9.62266C3.64278 9.72579 3.81154 9.97188 3.82092 10.25C3.83108 10.5625 3.86936 10.8828 3.93342 11.2039C3.98733 11.4719 3.88186 11.7484 3.66388 11.907L2.25764 12.9336C2.23343 12.9516 2.22561 12.9859 2.24046 13.0125L3.37406 15.0633C3.38968 15.0914 3.42249 15.1024 3.45062 15.0899L5.05686 14.4086C5.14436 14.3695 5.23576 14.3516 5.3264 14.3516L5.32641 14.3516ZM9.99681 13.1063C9.71557 13.1063 9.43041 13.0672 9.14759 12.9868C7.50071 12.5172 6.54299 10.7962 7.01159 9.14998C7.48113 7.5031 9.20459 6.54678 10.8484 7.01398C12.4953 7.48352 13.4538 9.20458 12.9844 10.8508C12.5969 12.2148 11.3492 13.1062 9.99679 13.1062L9.99681 13.1063ZM9.32337 12.3727C10.6304 12.7422 11.9976 11.9844 12.3702 10.6766C12.7421 9.36879 11.9811 8.00241 10.6741 7.62981C9.36235 7.25559 7.99987 8.01887 7.62727 9.32591C7.25539 10.6329 8.01633 11.9993 9.32337 12.3727Z" fill="#A2A6AA"/>
</svg>
