<svg width="22" height="22" viewBox="0 0 22 22" fill="none" xmlns="http://www.w3.org/2000/svg">
<path fill-rule="evenodd" clip-rule="evenodd" d="M17.6667 1C15.8257 1 14.3333 2.49238 14.3333 4.33333V17.6667C14.3333 19.5076 15.8257 21 17.6667 21C19.5076 21 21 19.5076 21 17.6667C21 15.8257 19.5076 14.3333 17.6667 14.3333H4.33333C2.49238 14.3333 1 15.8257 1 17.6667C1 19.5076 2.49238 21 4.33333 21C6.17428 21 7.66667 19.5076 7.66667 17.6667V4.33333C7.66667 2.49238 6.17428 1 4.33333 1C2.49238 1 1 2.49238 1 4.33333C1 6.17428 2.49238 7.66667 4.33333 7.66667H17.6667C19.5076 7.66667 21 6.17428 21 4.33333C21 2.49238 19.5076 1 17.6667 1Z" stroke="#0066FF" stroke-width="1.16667" stroke-linecap="round" stroke-linejoin="round"/>
</svg>
